inDegrees=yes
name=ik_S51_A10_T01
DataType=double
version=3
OpenSimVersion=4.3-2021-08-27-4bc7ad9
endheader
time	pelvis_tilt	pelvis_list	pelvis_rotation	pelvis_tx	pelvis_ty	pelvis_tz	hip_flexion_r	hip_adduction_r	hip_rotation_r	knee_angle_r	knee_angle_r_beta	ankle_angle_r	subtalar_angle_r	mtp_angle_r	hip_flexion_l	hip_adduction_l	hip_rotation_l	knee_angle_l	knee_angle_l_beta	ankle_angle_l	subtalar_angle_l	mtp_angle_l	lumbar_extension	lumbar_bending	lumbar_rotation	arm_flex_r	arm_add_r	arm_rot_r	elbow_flex_r	pro_sup_r	wrist_flex_r	wrist_dev_r	arm_flex_l	arm_add_l	arm_rot_l	elbow_flex_l	pro_sup_l	wrist_flex_l	wrist_dev_l
9.379999999999889	-2.32109046275529	1.842121831348217	41.64558386315931	0	0.9399999999999999	0	44.87871821219807	-9.999999570255087	-9.999887563086626	54.61377967789493	0.9531902723380348	0	0	0	44.87871821219807	-9.999999570255087	-9.999887563086626	54.61377967789493	0.9531902723380348	0	0	0	-0.8607087574635041	-0.9451914417686202	-5.494308141388603	41.78607291196077	4.313351099942696	-21.16347866552497	-9.588758865469789	95.28019088439545	0	0	48.72422715275759	-1.886265728253445	-15.34566103045907	21.79152221873249	88.82779992033794	0	0
9.399999999999888	-2.422213420175443	1.786675198907453	41.64632086450484	0	0.9399999999999999	0	44.87909749310124	-9.999999573782468	-9.999888229383533	54.61478288545417	0.9532077816130243	0	0	0	44.87909749310124	-9.999999573782468	-9.999888229383533	54.61478288545417	0.9532077816130243	0	0	0	-0.9606146542165306	-0.9663925264431314	-5.445523118930071	39.28094233646599	3.73156548296504	-23.06505037183931	-9.900804454749775	99.66608967408695	0	0	46.649288955873	-1.744872597388787	-15.75760875451317	19.9455907743383	91.25320372870124	0	0
9.419999999999888	-2.483646902379637	1.766363453961862	41.64111746234185	0	0.9399999999999999	0	44.87955652987719	-9.999999577755453	-9.999889003585004	54.61602787804708	0.9532295108329337	0	0	0	44.87955652987719	-9.999999577755453	-9.999889003585004	54.61602787804708	0.9532295108329337	0	0	0	-1.022523088124662	-0.9254874910359889	-5.370175148866714	38.86950385596877	3.190698158679395	-23.00274858107652	-9.931039564253831	100.0170409522102	0	0	44.33067868289596	-1.43012227346797	-15.44137395960786	18.96914535207762	92.63768259920985	0	0
9.439999999999888	-2.561716518094995	1.751279832446892	41.65334992563682	0	0.9399999999999999	0	44.87997393192637	-9.999999581511538	-9.999889722664998	54.61714960128212	0.9532490885966811	0	0	0	44.87997393192637	-9.999999581511538	-9.999889722664998	54.61714960128212	0.9532490885966811	0	0	0	-1.087634624836137	-0.9030701200911175	-5.274540199592344	36.47012897559762	2.809003859624754	-24.28421242705882	-9.948999660917128	103.1123876633013	0	0	42.10312286664264	-1.028645012855093	-14.85297727773805	18.2111805278751	93.60063850872346	0	0
9.459999999999887	-2.591756499167063	1.728684006939643	41.53048402395032	0	0.9399999999999999	0	44.88114328416289	-9.999999591097405	-9.999891633178304	54.62040668313613	0.9533059353990406	0	0	0	44.88114328416289	-9.999999591097405	-9.999891633178304	54.62040668313613	0.9533059353990406	0	0	0	-1.126093010316788	-0.8701841185632305	-5.099034916662383	36.07478753404985	2.265572752119596	-24.21183735340095	-9.956835094769541	103.8875847808063	0	0	39.82156333637758	-0.7226181367305903	-13.67968612773276	21.30515790516181	92.24583044723904	0	0
9.479999999999887	-2.646728571768641	1.709229308668144	41.60223582448442	0	0.9399999999999999	0	44.88189497868058	-9.99999959728669	-9.999892865022703	54.6224842723878	0.9533421961719862	0	0	0	44.88189497868058	-9.99999959728669	-9.999892865022703	54.6224842723878	0.9533421961719862	0	0	0	-1.179631901058983	-0.8230584942399535	-5.026714509445081	32.20787030038106	3.104779637881615	-24.18919279748162	-9.946777770818093	106.3505989328387	0	0	37.66794877596431	-0.2704890352892992	-12.97978242875202	20.28820594268965	93.46890271627342	0	0
9.499999999999886	-2.688816070175756	1.692392764151993	41.86630306921889	0	0.9399999999999999	0	44.88198501185777	-9.999999598330273	-9.999893048227888	54.62267664007224	0.9533455536214541	0	0	0	44.88198501185777	-9.999999598330273	-9.999893048227888	54.62267664007224	0.9533455536214541	0	0	0	-1.219170915193027	-0.8092574609929685	-5.153324497765545	29.99581698214651	3.252593260378451	-23.49221802419588	-9.940916164418971	107.3680179188812	0	0	37.75568970698451	-0.1636757930475906	-12.89414062686424	20.29171642628468	93.49671706377167	0	0
9.519999999999886	-2.712822514252611	1.699880673835361	41.951081240976	0	0.9399999999999999	0	44.88194783080607	-9.999999598479118	-9.999893039718479	54.62250378651789	0.953342536757807	0	0	0	44.88194783080607	-9.999999598479118	-9.999893039718479	54.62250378651789	0.953342536757807	0	0	0	-1.243269085718993	-0.8038023020061261	-5.08074997635519	27.7365378681443	3.383458934088789	-22.9168759977222	-9.934687361223538	108.6355926550404	0	0	35.6141757726765	0.3928404017598924	-12.63389550893565	14.75300446556387	98.25136674798762	0	0
9.539999999999885	-2.717322417596852	1.702611234702623	42.09951035706689	0	0.9399999999999999	0	44.88198254876326	-9.999999598877858	-9.99989310996661	54.62257849691497	0.9533438407002215	0	0	0	44.88198254876326	-9.999999598877858	-9.99989310996661	54.62257849691497	0.9533438407002215	0	0	0	-1.243466365847593	-0.7994116660554377	-5.176672797478464	25.55163481208123	3.432502475269352	-22.3965496143226	-9.927490316605166	108.7230497755258	0	0	35.63100453258165	0.4271248317693546	-12.59266141750284	14.70398067620807	98.24658617752013	0	0
9.559999999999885	-2.724754215015162	1.688038836628651	42.03886665333086	0	0.9399999999999999	0	44.88298858441152	-9.999999607106547	-9.999894757129105	54.62532459027323	0.9533917690708903	0	0	0	44.88298858441152	-9.999999607106547	-9.999894757129105	54.62532459027323	0.9533917690708903	0	0	0	-1.252965189100325	-0.8133853800211346	-4.898884009019989	23.63203830814229	3.234101741565055	-22.46608793564557	-9.92606153963168	108.9332912526706	0	0	31.19083792924605	1.700780921149117	-10.4559123866752	13.2114855936636	97.96058745027699	0	0
9.579999999999885	-2.732552389095955	1.650813008266276	42.07735621761197	0	0.9399999999999999	0	44.88305775711357	-9.999999607913791	-9.999894899065287	54.62546741742137	0.9533942618748865	0	0	0	44.88305775711357	-9.999999607913791	-9.999894899065287	54.62546741742137	0.9533942618748865	0	0	0	-1.283280906236518	-0.8346695185675788	-4.860799775777975	20.74683287013258	3.241989319242231	-23.07019086976411	-9.920342696284287	109.9748546467046	0	0	31.27978836563139	1.586194079184328	-10.75265698055434	9.941429344366201	98.51885182643315	0	0
9.599999999999884	-2.7149643188152	1.590994337194525	41.90076152583075	0	0.9399999999999999	0	44.8841990904862	-9.999999616775582	-9.999896709430562	54.62867777594894	0.9534502932013622	0	0	0	44.8841990904862	-9.999999616775582	-9.999896709430562	54.62867777594894	0.9534502932013622	0	0	0	-1.307739490188723	-0.8786834829611524	-4.628871322579067	19.49448812248384	3.352404432215565	-23.55475977179671	-9.917491969135826	110.4212433255415	0	0	26.97791215932195	3.24933926913958	-9.580417084493861	11.68808484269766	97.80488994633868	0	0
